<svg xmlns="http://www.w3.org/2000/svg" viewBox="0 0 1200 800" width="1200" height="800" role="img" aria-label="Product screenshot placeholder">
<defs>
<linearGradient id="g1" x1="0" y1="0" x2="1" y2="1">
<stop offset="0" stop-color="#96C5F7"/><stop offset="1" stop-color="#96C5F7" stop-opacity="0.72"/>
</linearGradient>
<filter id="soft" x="-20%" y="-20%" width="140%" height="140%"><feGaussianBlur stdDeviation="26"/></filter>
</defs>
<rect width="1200" height="800" fill="url(#g1)"/>
<circle cx="984" cy="144" r="272" fill="#084C61" opacity="0.30" filter="url(#soft)"/>
<circle cx="144" cy="704" r="224" fill="#FFFCFB" opacity="0.22" filter="url(#soft)"/>
<rect x="108" y="112" width="984" height="592" rx="16" fill="#FFFCFB" opacity="0.97"/>
<rect x="108" y="112" width="984" height="34" rx="16" fill="#43262E" opacity="0.07"/>
<rect x="108" y="134" width="984" height="12" fill="#FFFCFB" opacity="0.97"/>
<circle cx="128" cy="129" r="4.5" fill="#084C61"/>
<circle cx="144" cy="129" r="4.5" fill="#96C5F7"/>
<circle cx="160" cy="129" r="4.5" fill="#9EBC9F"/>
<rect x="180" y="122" width="443" height="14" rx="7" fill="#43262E" opacity="0.10"/>
<rect x="130" y="162" width="545" height="520" rx="10" fill="#43262E" opacity="0.05"/>
<rect x="150" y="184" width="180" height="9" rx="4" fill="#43262E" opacity="0.2"/>
<rect x="150" y="237" width="283" height="9" rx="4" fill="#43262E" opacity="0.1"/>
<rect x="150" y="290" width="224" height="9" rx="4" fill="#43262E" opacity="0.1"/>
<rect x="150" y="343" width="302" height="9" rx="4" fill="#43262E" opacity="0.1"/>
<rect x="150" y="396" width="310" height="9" rx="4" fill="#43262E" opacity="0.2"/>
<rect x="150" y="448" width="123" height="9" rx="4" fill="#43262E" opacity="0.1"/>
<rect x="150" y="501" width="105" height="9" rx="4" fill="#43262E" opacity="0.1"/>
<rect x="150" y="554" width="380" height="9" rx="4" fill="#43262E" opacity="0.1"/>
<rect x="150" y="607" width="188" height="9" rx="4" fill="#43262E" opacity="0.1"/>
<rect x="713" y="162" width="357" height="260" rx="10" fill="#084C61" opacity="0.18"/>
<circle cx="891" cy="292" r="73" fill="#084C61" opacity="0.45"/>
<rect x="713" y="453" width="357" height="229" rx="10" fill="#43262E" opacity="0.05"/>
<rect x="729" y="473" width="325" height="9" rx="4" fill="#43262E" opacity="0.13"/>
<rect x="729" y="499" width="307" height="9" rx="4" fill="#43262E" opacity="0.13"/>
<rect x="729" y="525" width="289" height="9" rx="4" fill="#43262E" opacity="0.13"/>
</svg>