<svg xmlns="http://www.w3.org/2000/svg" viewBox="0 0 1200 800" width="1200" height="800" role="img" aria-label="Product screenshot placeholder">
<defs>
<linearGradient id="g1" x1="0" y1="0" x2="1" y2="1">
<stop offset="0" stop-color="#FDEAE6"/><stop offset="1" stop-color="#FDEAE6" stop-opacity="0.72"/>
</linearGradient>
<filter id="soft" x="-20%" y="-20%" width="140%" height="140%"><feGaussianBlur stdDeviation="26"/></filter>
</defs>
<rect width="1200" height="800" fill="url(#g1)"/>
<circle cx="984" cy="144" r="272" fill="#084C61" opacity="0.30" filter="url(#soft)"/>
<circle cx="144" cy="704" r="224" fill="#FFFCFB" opacity="0.22" filter="url(#soft)"/>
<rect x="108" y="112" width="984" height="592" rx="16" fill="#FFFCFB" opacity="0.97"/>
<rect x="108" y="112" width="984" height="34" rx="16" fill="#43262E" opacity="0.07"/>
<rect x="108" y="134" width="984" height="12" fill="#FFFCFB" opacity="0.97"/>
<circle cx="128" cy="129" r="4.5" fill="#084C61"/>
<circle cx="144" cy="129" r="4.5" fill="#96C5F7"/>
<circle cx="160" cy="129" r="4.5" fill="#9EBC9F"/>
<rect x="180" y="122" width="443" height="14" rx="7" fill="#43262E" opacity="0.10"/>
<rect x="130" y="162" width="940" height="28" rx="9" fill="#43262E" opacity="0.055"/>
<rect x="148" y="172" width="54" height="8" rx="4" fill="#43262E" opacity="0.22"/>
<rect x="224" y="172" width="54" height="8" rx="4" fill="#43262E" opacity="0.09"/>
<rect x="300" y="172" width="54" height="8" rx="4" fill="#43262E" opacity="0.09"/>
<rect x="376" y="172" width="54" height="8" rx="4" fill="#43262E" opacity="0.09"/>
<rect x="452" y="172" width="54" height="8" rx="4" fill="#43262E" opacity="0.09"/>
<rect x="130" y="206" width="545" height="476" rx="13" fill="#084C61" opacity="0.18"/>
<rect x="148" y="224" width="509" height="276" rx="10" fill="#084C61" opacity="0.34"/>
<rect x="148" y="520" width="414" height="13" rx="6" fill="#43262E" opacity="0.32"/>
<rect x="148" y="553" width="316" height="10" rx="5" fill="#43262E" opacity="0.15"/>
<rect x="691" y="206" width="379" height="147" rx="11" fill="#43262E" opacity="0.045"/>
<rect x="704" y="219" width="129" height="121" rx="8" fill="#9EBC9F" opacity="0.47"/>
<rect x="847" y="224" width="186" height="10" rx="5" fill="#43262E" opacity="0.24"/>
<rect x="847" y="245" width="144" height="8" rx="4" fill="#43262E" opacity="0.11"/>
<rect x="691" y="365" width="379" height="147" rx="11" fill="#43262E" opacity="0.045"/>
<rect x="704" y="378" width="129" height="121" rx="8" fill="#FAB3A9" opacity="0.47"/>
<rect x="847" y="383" width="186" height="10" rx="5" fill="#43262E" opacity="0.24"/>
<rect x="847" y="404" width="144" height="8" rx="4" fill="#43262E" opacity="0.11"/>
<rect x="691" y="523" width="379" height="147" rx="11" fill="#43262E" opacity="0.045"/>
<rect x="704" y="536" width="129" height="121" rx="8" fill="#96C5F7" opacity="0.47"/>
<rect x="847" y="541" width="186" height="10" rx="5" fill="#43262E" opacity="0.24"/>
<rect x="847" y="562" width="144" height="8" rx="4" fill="#43262E" opacity="0.11"/>
</svg>